<svg xmlns="http://www.w3.org/2000/svg" width="24" height="24" fill="none"><g clip-path="url(#a)"><path fill="#000" d="M12.195 5.6c.428.002 1.497.013 2.633.058l.402.018c1.144.054 2.287.146 2.854.304.756.213 1.35.833 1.55 1.618.32 1.247.36 3.682.365 4.271l.001.122v.139c-.006.59-.046 3.024-.366 4.271-.203.789-.797 1.408-1.55 1.618-.567.158-1.71.25-2.854.305l-.402.017a80.606 80.606 0 0 1-2.633.058h-.391c-.904-.005-4.686-.046-5.888-.38A2.249 2.249 0 0 1 4.365 16.4c-.32-1.247-.36-3.681-.365-4.27v-.262c.005-.59.045-3.024.365-4.271.203-.788.798-1.408 1.55-1.618 1.203-.334 4.985-.375 5.889-.38h.391ZM10.4 9.2v5.6l4.8-2.8-4.8-2.8Z"/></g><defs><clipPath id="a"><path fill="#fff" d="M0 0h24v24H0z"/></clipPath></defs></svg>