<svg xmlns="http://www.w3.org/2000/svg" viewBox="0 0 640 480">
  <g stroke-width="1pt">
    <path fill="#006" d="M0 0h640v480H0z"/>
    <path fill="#fff" d="m299.8 392.5-43.7 3.8 14 41.7-37.4-22.2-28 35.4 2.6-44.2-43.4-10.4 39.2-19.7-18.9-39.8 40.5 17 10.1-43.4 18.6 39.8 37.4-22.8-14.5 42.5 29.8-34"/>
    <path fill="#fff" d="m534 332.5-22.3 1.5 7.1 21.2-19-11.5-14.4 17.9 1.1-22.4-22-5.4 19.9-9.7-9.5-20.3 20.5 8.9 5.2-22 9.4 20.2 19-11.4-7.2 21.4 15.1-17.3"/>
    <path fill="#fff" d="m534 179.5-22.3 1.5 7.1 21.2-19-11.5-14.4 17.9 1.1-22.4-22-5.4 19.9-9.7-9.5-20.3 20.5 8.9 5.2-22 9.4 20.2 19-11.4-7.2 21.4 15.1-17.3"/>
    <path fill="#fff" d="m449 251.5-22.3 1.5 7.1 21.2-19-11.5-14.4 17.9 1.1-22.4-22-5.4 19.9-9.7-9.5-20.3 20.5 8.9 5.2-22 9.4 20.2 19-11.4-7.2 21.4 15.1-17.3"/>
    <path fill="#fff" d="m584 251.5-22.3 1.5 7.1 21.2-19-11.5-14.4 17.9 1.1-22.4-22-5.4 19.9-9.7-9.5-20.3 20.5 8.9 5.2-22 9.4 20.2 19-11.4-7.2 21.4 15.1-17.3"/>
    <path fill="#fff" d="m516.4 221.8-14.3 1-2.4-7.5-6 12.2-14.3-3 10.7-9.6-6.4-12.9 13.3 5.3 10.3-9.5-2 14.6 13 5.8"/>
    <path fill="#fff" d="M0 0h320v240H0z"/>
    <g fill="#006">
      <path d="m37.5 0 122 90.5L281.2 0h38.3v17.5l-120 86.5 120 85v17.5h-40l-120-88-118.5 88H0v-16l119.5-86L0 19V0z"/>
    </g>
    <path fill="#c00" d="m212 140.5 108-79.5h-30.5L142 150V0h-24v162.5L0 244v-18l108-85.5z"/>
    <path fill="#c00" d="m212 140.5 108-79.5h-30.5L142 150V0h-24v162.5L0 244v-18l108-85.5z" transform="rotate(180 160 120)"/>
    <path fill="#fff" d="M0 96h320v48H0z"/>
    <path fill="#fff" d="M120 0h80v240h-80z"/>
    <path fill="#c00" d="M0 108h320v24H0z"/>
    <path fill="#c00" d="M132 0h56v240h-56z"/>
  </g>
</svg>
